<svg xmlns="http://www.w3.org/2000/svg">
<defs>
<symbol id="categories" fill="none">
<circle cx="17" cy="7" r="3" stroke-width="2.5" stroke-linecap="round" stroke-linejoin="round"/>
<circle cx="7" cy="17" r="3" stroke-width="2.5" stroke-linecap="round" stroke-linejoin="round"/>
<path d="M14 14H20V19C20 19.5523 19.5523 20 19 20H15C14.4477 20 14 19.5523 14 19V14Z" stroke-width="2.5" stroke-linecap="round" stroke-linejoin="round"/>
<path d="M4 4H10V9C10 9.55228 9.55228 10 9 10H5C4.44772 10 4 9.55228 4 9V4Z" stroke-width="2.5" stroke-linecap="round" stroke-linejoin="round"/>
</symbol>
<symbol id="calendar">
<path d="M20 10V7C20 5.89543 19.1046 5 18 5H6C4.89543 5 4 5.89543 4 7V10M20 10V19C20 20.1046 19.1046 21 18 21H6C4.89543 21 4 20.1046 4 19V10M20 10H4M8 3V7M16 3V7" stroke-width="2" stroke-linecap="round" fill="none"/>
<rect x="13" y="14" width="5" height="5" rx="1" />
</symbol>
<symbol id="tags">
<g fill-rule="evenodd" transform="translate(1 5)">
<path d="m11.9142136.5h3.5857864c1.1045695 0 2 .8954305 2 2v3.58578644c0 .26521649-.1053568.5195704-.2928932.70710678l-6.7928932 6.79289318c-.78104862.7810486-2.04737858.7810486-2.82842716 0l-3.17157288-3.1715728c-.78104858-.78104862-.78104858-2.04737858 0-2.82842716l6.79289324-6.79289322c.1875364-.18753638.4418903-.29289322.7071068-.29289322z" fill="none" stroke-linecap="round" stroke-linejoin="round"/>
<path d="m7.5 13.5-2.01296191 1.006481c-.98795699.4939785-2.18930307.0935298-2.68328157-.8944272-.03127543-.0625509-.05924851-.1266991-.08380397-.1921803l-1.61484253-4.30624679c-.34775942-.92735845.03559029-1.96957132.90137249-2.45056144l7.49351749-4.16306527" fill="none" stroke-linecap="round" stroke-linejoin="round"/>
<rect height="2" rx="1" width="2" x="14" y="2"/>
</g>
</symbol>
<symbol id="feed">
<path d="M6.002 15.999c-1.107 0-2.004.897-2.002 2.001 0 1.104.896 2.001 2.002 1.999 1.103.002 2-.894 1.998-1.999.002-1.107-.895-2.003-1.998-2.001zM6 4c-1.104 0-2 .896-2 2s.896 2 2 2c5.514 0 10 4.486 10 10 0 1.104.896 2 2 2s2-.896 2-2c0-7.72-6.28-14-14-14zM6 10c-1.104 0-2 .896-2 2s.896 2 2 2c2.205 0 4 1.794 4 4 0 1.104.896 2 2 2s2-.896 2-2c0-4.411-3.589-8-8-8z"/>
</symbol>
<symbol id="mail" viewBox="0 0 94.25 94.25">
<g id="SVGRepo_bgCarrier" stroke-width="0"></g><g id="SVGRepo_tracerCarrier" stroke-linecap="round" stroke-linejoin="round"></g><g id="SVGRepo_iconCarrier"> <g> <path d="M0,15.992v62.266h94.25V15.992H0z M66.025,22.299h20.029v12.682H66.025V22.299z M51.355,64.115H8.195v-5.725h43.161V64.115 z M51.355,50.027H8.195v-5.724h43.161V50.027z"></path> </g> </g>
</symbol>
</defs>
<use href="#categories" fill="black" stroke="black" />
<use href="#calendar" y="24" fill="black" stroke="black" />
<use href="#tags" y="48" fill="black" stroke="black" />
<use href="#feed" y="72" fill="black" stroke="black" />
<use href="#mail" y="96" fill="black" stroke="black" width="24px" height="24px" />
</svg>
