<svg xmlns="http://www.w3.org/2000/svg">
<defs>
<symbol id="categories" fill="none">
<circle cx="17" cy="7" r="3" stroke-width="2.5" stroke-linecap="round" stroke-linejoin="round"/>
<circle cx="7" cy="17" r="3" stroke-width="2.5" stroke-linecap="round" stroke-linejoin="round"/>
<path d="M14 14H20V19C20 19.5523 19.5523 20 19 20H15C14.4477 20 14 19.5523 14 19V14Z" stroke-width="2.5" stroke-linecap="round" stroke-linejoin="round"/>
<path d="M4 4H10V9C10 9.55228 9.55228 10 9 10H5C4.44772 10 4 9.55228 4 9V4Z" stroke-width="2.5" stroke-linecap="round" stroke-linejoin="round"/>
</symbol>
<symbol id="calendar">
<path d="M20 10V7C20 5.89543 19.1046 5 18 5H6C4.89543 5 4 5.89543 4 7V10M20 10V19C20 20.1046 19.1046 21 18 21H6C4.89543 21 4 20.1046 4 19V10M20 10H4M8 3V7M16 3V7" stroke-width="2" stroke-linecap="round" fill="none"/>
<rect x="13" y="14" width="5" height="5" rx="1" />
</symbol>
<symbol id="tags">
<g id="SVGRepo_bgCarrier" stroke-width="0"></g><g id="SVGRepo_tracerCarrier" stroke-linecap="round" stroke-linejoin="round"></g><g id="SVGRepo_iconCarrier"> <path fill-rule="evenodd" clip-rule="evenodd" d="M7.99988 6C7.99988 3.79086 9.79074 2 11.9999 2H16.9999C19.209 2 20.9999 3.79086 20.9999 6V16.0514C20.9999 17.6802 19.157 18.626 17.8337 17.6762L15.9999 16.3601V20.0514C15.9999 21.6802 14.157 22.626 12.8337 21.6762L9.49988 19.2835L6.16603 21.6762C4.84275 22.626 2.99988 21.6802 2.99988 20.0514V10C2.99988 7.79086 4.79074 6 6.99988 6H7.99988ZM9.99988 6C9.99988 4.89543 10.8953 4 11.9999 4H16.9999C18.1044 4 18.9999 4.89543 18.9999 6V16.0514L15.9999 13.8983V10C15.9999 7.79086 14.209 6 11.9999 6H9.99988ZM6.99988 8C5.89531 8 4.99988 8.89543 4.99988 10V20.0514L8.33373 17.6587C9.0307 17.1585 9.96906 17.1585 10.666 17.6587L13.9999 20.0514V10C13.9999 8.89543 13.1044 8 11.9999 8H6.99988Z"></path> </g>
</symbol>
<symbol id="feed">
<path d="M6.002 15.999c-1.107 0-2.004.897-2.002 2.001 0 1.104.896 2.001 2.002 1.999 1.103.002 2-.894 1.998-1.999.002-1.107-.895-2.003-1.998-2.001zM6 4c-1.104 0-2 .896-2 2s.896 2 2 2c5.514 0 10 4.486 10 10 0 1.104.896 2 2 2s2-.896 2-2c0-7.72-6.28-14-14-14zM6 10c-1.104 0-2 .896-2 2s.896 2 2 2c2.205 0 4 1.794 4 4 0 1.104.896 2 2 2s2-.896 2-2c0-4.411-3.589-8-8-8z"/>
</symbol>
<symbol id="mail" viewBox="0 0 94.25 94.25">
<g id="SVGRepo_bgCarrier" stroke-width="0"></g><g id="SVGRepo_tracerCarrier" stroke-linecap="round" stroke-linejoin="round"></g><g id="SVGRepo_iconCarrier"> <g> <path d="M0,15.992v62.266h94.25V15.992H0z M66.025,22.299h20.029v12.682H66.025V22.299z M51.355,64.115H8.195v-5.725h43.161V64.115 z M51.355,50.027H8.195v-5.724h43.161V50.027z"></path> </g> </g>
</symbol>
<symbol id="github" viewBox="0 0 24 24">
<g id="SVGRepo_bgCarrier" stroke-width="0"></g><g id="SVGRepo_tracerCarrier" stroke-linecap="round" stroke-linejoin="round"></g><g id="SVGRepo_iconCarrier"> <path fill-rule="evenodd" d="M10.0172337,20.0036431 C10.022429,20.1264837 10.0091724,20.2463579 9.98330461,20.3676906 C9.93784953,20.5808973 9.85006902,20.806507 9.72581375,21.0149561 C9.37258963,21.6075205 8.77254382,22.0029294 8,22.0029294 C6.18009841,22.0029294 5.46583567,21.110101 4.57152331,18.8743201 C3.96583567,17.360101 3.68009841,17.0029294 3,17.0029294 L3,15.0029294 C4.81990159,15.0029294 5.53416433,15.8957579 6.42847669,18.1315388 C7.03416433,19.6457579 7.31990159,20.0029294 8,20.0029294 C8,19.7127644 7.99602627,19.4557363 7.98766336,19.10766 C7.96806324,18.2918745 7.96580921,18.1253294 8.00139994,17.9072328 C8.01562221,17.4311461 8.13853505,17.0933379 8.38499657,16.758055 C6.15319163,16.2722225 4.64792011,15.2688507 3.78397367,13.6414131 L3.46033692,12.8803116 C3.14504523,11.9742045 3,10.9475314 3,9.76182789 C3,8.3962705 3.41634612,7.17529446 4.19401809,6.15466942 C3.95142672,5.18452501 3.98465035,3.99922139 4.52030872,2.66060213 L4.69533986,2.22319636 L5.14406803,2.07965982 C5.20414701,2.06044211 5.27718427,2.04308516 5.36298939,2.02961795 C6.2367624,1.89247825 7.48010477,2.21967938 9.10554673,3.26084348 C10.0637668,3.03871956 11.0728464,2.92657377 12.0887705,2.92657377 C12.9966325,2.92657377 13.8994565,3.01809831 14.761632,3.19853941 C16.3430593,2.20820612 17.552239,1.89759865 18.4025017,2.02979376 C18.4873192,2.04298081 18.5596096,2.06000541 18.6191923,2.07890005 L19.0707147,2.22208531 L19.2459583,2.66215824 C19.7145535,3.83889806 19.7949778,4.92336373 19.6244695,5.87228979 C20.5184674,6.94500389 21,8.26378067 21,9.76182789 C21,11.0247658 20.9095208,11.9744236 20.64943,12.8982988 L20.374903,13.6516598 C19.6562828,15.2773712 18.071463,16.2919934 15.627532,16.7752488 C15.881555,17.1269685 16,17.4840164 16,18.0029294 L16,19.0029294 C16,19.4875328 16,19.5024553 15.9988971,20.0029332 C16.0011677,20.0388683 16.0041674,20.0564681 16.0074409,20.0674343 C16.0069051,20.0676207 16.0044248,20.7127858 16,22.0029294 C15.1482062,22.0029294 14.5148687,21.5875264 14.2033753,20.9322561 C14.0418761,20.5925196 13.9936266,20.2681196 14,19.9887282 L14,18.0029294 C14,17.9190828 13.9970903,17.9142333 13.7928932,17.7100362 C13.2470903,17.1642333 13,16.7524162 13,16.0029294 L13,15.098327 L13.9000749,15.0079345 C16.5793439,14.7388614 18.0365375,13.994809 18.5196779,12.9078386 L18.7454621,12.2906007 C18.925117,11.6452201 19,10.8592573 19,9.76182789 C19,8.5957377 18.5929046,7.6324677 17.8229924,6.86285829 L17.399809,6.43984136 L17.5725269,5.86695742 C17.7259675,5.35801396 17.7624331,4.7557886 17.6001079,4.06889646 C17.5731265,4.07573155 17.5450908,4.08318009 17.5159887,4.09128216 C16.9805442,4.24035094 16.3120315,4.56021479 15.5064471,5.09869159 L15.139019,5.34429154 L14.7100567,5.23792413 C13.880388,5.0321958 12.9888516,4.92657377 12.0887705,4.92657377 C11.0878626,4.92657377 10.0984637,5.05392119 9.18445917,5.30309711 L8.73840507,5.42470039 L8.3568182,5.1636581 C7.52362575,4.59367395 6.83145179,4.25470831 6.27642408,4.09636524 C6.23678449,4.08505652 6.19904057,4.07494077 6.16316427,4.06592263 C5.9695217,4.8609066 6.04611126,5.51405583 6.24223012,6.00416015 L6.47738305,6.59181128 L6.04688499,7.05581793 C5.36089731,7.79520071 5,8.69496705 5,9.76182789 C5,10.7385874 5.11434439,11.5479509 5.32388252,12.1576254 L5.58556699,12.7770588 C6.23973869,14.0045823 7.62920432,14.743076 10.1065792,15.0086252 L11,15.1043908 L11,16.0029294 C11,16.7524162 10.7529097,17.1642333 10.2071068,17.7100362 C10.0029097,17.9142333 10,17.9190828 10,18.0029294 L9.98276345,18.1877969 C9.97135799,18.2484289 9.97135799,18.404984 9.98708636,19.0596217 C9.99432024,19.3607065 9.99844271,19.5990116 9.99963477,19.8480351 C10.0115828,19.8995855 10.013389,19.9328439 10.0172337,20.0036431 Z"></path> </g>
</symbol>
<symbol id="gitlab" viewBox="0 0 24 24">
<g id="SVGRepo_bgCarrier" stroke-width="0"></g><g id="SVGRepo_tracerCarrier" stroke-linecap="round" stroke-linejoin="round"></g><g id="SVGRepo_iconCarrier"> <path fill-rule="evenodd" d="M14.381966,9 L17.1055728,3.5527864 C17.510563,2.74280594 18.6976082,2.84525834 18.9578263,3.71265211 L21.9578263,13.7126521 C22.0764694,14.1081293 21.9398565,14.5358621 21.6139406,14.7893522 L12.6139406,21.7893522 C12.2528301,22.0702159 11.7471699,22.0702159 11.3860594,21.7893522 L2.38605939,14.7893522 C2.06014352,14.5358621 1.92353056,14.1081293 2.04217371,13.7126521 L5.04217371,3.71265211 C5.30239185,2.84525834 6.48943696,2.74280594 6.89442719,3.5527864 L9.61803399,9 L14.381966,9 Z M17.7667436,6.7025808 L15.8944272,10.4472136 C15.7250352,10.7859976 15.3787721,11 15,11 L9,11 C8.62122794,11 8.27496482,10.7859976 8.10557281,10.4472136 L6.23325641,6.7025808 L4.15466686,13.6312126 L12,19.7331384 L19.8453331,13.6312126 L17.7667436,6.7025808 Z"></path> </g>
</symbol>
<symbol id="stackoverflow" viewBox="0 0 100 100">
<g id="SVGRepo_bgCarrier" stroke-width="0"></g><g id="SVGRepo_tracerCarrier" stroke-linecap="round" stroke-linejoin="round"></g><g id="SVGRepo_iconCarrier"> <g id="layer1_1_"> <polygon points="65.269,85.165 23.208,85.165 23.429,57.022 17.109,56.962 17.074,92 71.927,92 71.927,57.126 65.269,57.126 "></polygon> <rect x="27.414" y="73.601" width="32.947" height="7.008"></rect> <rect x="27.765" y="62.557" transform="matrix(0.9954 0.0961 -0.0961 0.9954 6.5615 -3.9532)" width="33.122" height="7.186"></rect> <rect x="29.605" y="51.079" transform="matrix(0.9624 0.2716 -0.2716 0.9624 16.5844 -10.4838)" width="33.122" height="7.184"></rect> <rect x="34.687" y="38.636" transform="matrix(0.856 0.517 -0.517 0.856 29.2145 -20.4144)" width="33.122" height="7.186"></rect> <rect x="45.221" y="27.283" transform="matrix(-0.5824 -0.8129 0.8129 -0.5824 72.6673 99.0802)" width="33.122" height="7.185"></rect> <rect x="73.06" y="8.366" transform="matrix(0.9863 -0.1649 0.1649 0.9863 -3.0607 12.9782)" width="7.185" height="33.123"></rect> </g> </g>
</symbol>
<symbol id="linkedin" fill="none" viewBox="0 0 24 24">
<g id="SVGRepo_bgCarrier" stroke-width="0"></g><g id="SVGRepo_tracerCarrier" stroke-linecap="round" stroke-linejoin="round"></g><g id="SVGRepo_iconCarrier"> <path d="M8 16V11M12 16V14M12 11V14M16 16V14C16 12.5 15.5 11 14 11C12.5 11 12 12.5 12 14M7.99 8H8M6 20H18C19.1046 20 20 19.1046 20 18V6C20 4.89543 19.1046 4 18 4H6C4.89543 4 4 4.89543 4 6V18C4 19.1046 4.89543 20 6 20Z" stroke-width="2" stroke-linecap="round" stroke-linejoin="round"></path> </g>
</symbol>
<symbol id="twitter" fill="none" viewBox="0 0 24 24">
<g id="SVGRepo_bgCarrier" stroke-width="0"></g><g id="SVGRepo_tracerCarrier" stroke-linecap="round" stroke-linejoin="round"></g><g id="SVGRepo_iconCarrier"> <path d="M3.50003 4.50005C1.50012 7.99982 2.63692 13.738 7.63684 16.2382C6.52918 17.0001 4.50012 17.9999 2.50012 18.4998C7.00012 20.4999 11.5001 20.9999 16.0001 17.4999C19.4154 14.8436 20.1668 10.1666 20.0001 7.99991L22.5001 5.00023H19.0001C17.5001 3.49991 16.022 3.57155 14.5001 4.00017C12.724 4.50037 11.7934 6.34309 12.0001 8.49991C9.00012 8.99968 6.00012 6.99982 3.50003 4.50005Z" stroke-width="2" stroke-linecap="round" stroke-linejoin="round"></path> </g>
</symbol>
<symbol id="facebook" viewBox="0 0 24 24">
<g id="SVGRepo_bgCarrier" stroke-width="0"></g><g id="SVGRepo_tracerCarrier" stroke-linecap="round" stroke-linejoin="round"></g><g id="SVGRepo_iconCarrier"><path id="primary" d="M14,6h3a1,1,0,0,0,1-1V3a1,1,0,0,0-1-1H14A5,5,0,0,0,9,7v3H7a1,1,0,0,0-1,1v2a1,1,0,0,0,1,1H9v7a1,1,0,0,0,1,1h2a1,1,0,0,0,1-1V14h2.22a1,1,0,0,0,1-.76l.5-2a1,1,0,0,0-1-1.24H13V7A1,1,0,0,1,14,6Z"></path></g>
</symbol>
<symbol id="hackernews" viewBox="0 0 100 100">
<g id="SVGRepo_bgCarrier" stroke-width="0"></g><g id="SVGRepo_tracerCarrier" stroke-linecap="round" stroke-linejoin="round"></g><g id="SVGRepo_iconCarrier"> <g> <path d="M79,14H21c-3.866,0-7,3.134-7,7v58c0,3.866,3.134,7,7,7h58c3.866,0,7-3.134,7-7V21 C86,17.134,82.866,14,79,14z M53.134,52.654V69.83h-5.267V52.714L35.12,29.494h5.925l5.685,11.132 c1.556,3.051,2.752,5.505,4.01,8.318h0.12c1.137-2.634,2.514-5.268,4.07-8.318l5.805-11.132h5.924L53.134,52.654z"></path> </g> </g>
</symbol>
<symbol id="film" viewBox="0 -13.54 122.88 122.88">
<g id="SVGRepo_bgCarrier" stroke-width="0"></g><g id="SVGRepo_tracerCarrier" stroke-linecap="round" stroke-linejoin="round"></g><g id="SVGRepo_iconCarrier"> <g> <path d="M12.14,0H32.8h29.43h28.8h19.71c3.34,0,6.38,1.37,8.58,3.56c2.2,2.2,3.56,5.24,3.56,8.58v7.13v57.25v7.09 c0,3.34-1.37,6.38-3.56,8.58c-2.2,2.2-5.24,3.56-8.58,3.56h-19.2c-0.16,0.03-0.33,0.04-0.51,0.04c-0.17,0-0.34-0.01-0.51-0.04 H62.74c-0.16,0.03-0.33,0.04-0.51,0.04c-0.17,0-0.34-0.01-0.51-0.04H33.31c-0.16,0.03-0.33,0.04-0.51,0.04 c-0.17,0-0.34-0.01-0.51-0.04H12.14c-3.34,0-6.38-1.37-8.58-3.56S0,86.95,0,83.61v-7.09V19.27v-7.13C0,8.8,1.37,5.76,3.56,3.56 C5.76,1.37,8.8,0,12.14,0L12.14,0z M55.19,31.24l20.53,14.32c0.32,0.2,0.61,0.48,0.84,0.81c0.92,1.33,0.58,3.14-0.74,4.06 L55.37,64.57c-0.5,0.41-1.15,0.66-1.85,0.66c-1.62,0-2.93-1.31-2.93-2.93V33.63h0.01c0-0.58,0.17-1.16,0.52-1.67 C52.05,30.64,53.87,30.32,55.19,31.24L55.19,31.24z M93.95,79.45V89.9h16.78c1.73,0,3.3-0.71,4.44-1.85 c1.14-1.14,1.85-2.71,1.85-4.44v-4.16H93.95L93.95,79.45z M88.1,89.9V79.45H65.16V89.9H88.1L88.1,89.9z M59.31,89.9V79.45H35.73 V89.9H59.31L59.31,89.9z M29.87,89.9V79.45H5.85v4.16c0,1.73,0.71,3.3,1.85,4.44c1.14,1.14,2.71,1.85,4.44,1.85H29.87L29.87,89.9z M5.85,73.6H32.8h29.43h28.8h26V22.2h-26h-28.8H32.8H5.85V73.6L5.85,73.6z M88.1,16.35V5.85H65.16v10.49H88.1L88.1,16.35z M93.95,5.85v10.49h23.07v-4.2c0-1.73-0.71-3.3-1.85-4.44c-1.14-1.14-2.71-1.85-4.44-1.85H93.95L93.95,5.85z M59.31,16.35V5.85 H35.73v10.49H59.31L59.31,16.35z M29.87,16.35V5.85H12.14c-1.73,0-3.3,0.71-4.44,1.85c-1.14,1.14-1.85,2.71-1.85,4.44v4.2H29.87 L29.87,16.35z"></path> </g> </g>
</symbol>
</defs>
<use href="#categories" fill="black" stroke="black" />
<use href="#calendar" y="24" fill="black" stroke="black" />
<use href="#tags" y="48" fill="black" stroke="black" />
<use href="#feed" y="72" fill="black" stroke="black" />
<use href="#mail" y="96" fill="black" stroke="black" width="24px" height="24px" />
<use href="#github" y="120" fill="black" stroke="black" width="48px" height="48px" />
<use href="#gitlab" y="168" fill="black" stroke="black" width="48px" height="48px" />
<use href="#stackoverflow" y="216" fill="black" stroke="black" width="48px" height="48px" />
<use href="#linkedin" y="264" fill="black" stroke="black" width="48px" height="48px" />
<use href="#twitter" y="312" fill="black" stroke="black" width="48px" height="48px" />
<use href="#facebook" y="360" fill="black" stroke="black" width="48px" height="48px" />
<use href="#hackernews" y="408" fill="black" stroke="black" width="48px" height="48px" />
<use href="#film" y="456" fill="black" stroke="black" width="48px" height="48px" />
</svg>
